<?xml version="1.0" encoding="utf-8"?>
<!-- Generator: Adobe Illustrator 15.1.0, SVG Export Plug-In . SVG Version: 6.00 Build 0)  -->
<!DOCTYPE svg PUBLIC "-//W3C//DTD SVG 1.1//EN" "http://www.w3.org/Graphics/SVG/1.1/DTD/svg11.dtd">
<svg version="1.1" id="Layer_1" xmlns="http://www.w3.org/2000/svg" xmlns:xlink="http://www.w3.org/1999/xlink" x="0px" y="0px"
	 width="600px" height="600px" viewBox="0 0 600 600" enable-background="new 0 0 600 600" xml:space="preserve">
<g>
	<g>
		<path fill="#FFFFFF" d="M51.499,85.817c1.49,0.426,3.271,5.257,3.644,6.348c0.948,2.767,0.962,5.931,1.692,8.778
			c0.703,2.74,0.784,6.631,1.007,9.453c0.308,3.885-0.133,7.905-0.133,11.805c0,14.349,1.029,29.149-0.504,43.421
			c-0.571,5.316-0.857,11.028-0.857,16.367c0,7.219-0.844,14.656,0.835,21.741c1.654,6.982,3.541,13.395,6.123,20.068
			c2.028,5.243,4.332,12.306,10.068,14.583c4.971,1.974,10.025,1.913,14.349-1.565c5.32-4.28,10.432-7.682,12.842-14.356
			c1.923-5.324,4.941-11.185,5.455-16.875c0.595-6.587,0.813-13.165,1.423-19.74c0.608-6.563,0.085-13.396,0.085-19.983
			c0-8.085,0-16.17,0-24.255c0-7.54-0.329-15.096-0.075-22.631c0.121-3.598,0.815-7.13,1.03-10.717
			c0.233-3.908-0.226-7.873-0.274-11.784c-0.022-1.763,0.679-3.625,0.684-5.445c0.005-2.134,0.151-4.219,0.517-6.324
			c0.988-5.678-7.688-8.089-8.682-2.376c-0.986,5.667-1.626,11.884-1.442,17.616c0.227,7.061-0.66,13.816-0.897,20.85
			c-0.524,15.55,0.139,31.25,0.139,46.816c0,6.36,0.729,13.226-0.234,19.527c-0.946,6.188-0.04,12.664-1.489,18.821
			c-1.276,5.417-3.405,13.382-7.055,17.614c-1.985,2.303-4.864,3.985-7.2,5.927c-3.524,2.929-6.309,0.393-8.293-2.684
			c-3.624-5.617-5.634-13.652-7.063-20.095c-0.809-3.646-1.869-7.059-2.005-10.817c-0.127-3.519,0.163-7.064,0.163-10.586
			c0-12.76,1.361-25.471,1.361-38.28c0-7.101,0-14.201,0-21.301c0-6.608,0.583-13.311-0.415-19.86
			c-0.888-5.829-1.051-11.926-2.982-17.562c-1.471-4.294-4.808-9.857-9.44-11.18C48.28,75.537,45.926,84.225,51.499,85.817
			L51.499,85.817z"/>
	</g>
</g>
<g>
	<g>
		<path fill="#FFFFFF" d="M97.166,216.138c0.032,8.79,4.222,16.014,9.474,22.878c3.627,4.742,9.788,13.799,16.894,11.896
			c3.357-0.9,6.18-3.403,9.048-5.243c3.87-2.484,6.864-4.412,8.857-8.718c4.032-8.708,4.866-17.789,4.866-27.234
			c0-10.231-0.417-20.559,0.51-30.759c0.837-9.211,3.571-18.131,3.571-27.381c0-8.347,0.981-16.829,1.361-25.17
			c0.501-11.022-0.124-21.459,3.241-32.177c1.745-5.555-6.949-7.895-8.682-2.376c-2.505,7.977-3.388,16.234-3.551,24.566
			c-0.148,7.583-0.691,15.112-0.691,22.683c0,7.338-0.526,14.721-1.68,21.944c-1.316,8.235-2.696,16.528-3.025,24.876
			c-0.335,8.515-0.057,17.09-0.057,25.611c0,4.516,0.035,8.845-1.208,13.228c-1.053,3.713-2.059,9.377-5.478,11.571
			c-2.753,1.767-5.475,3.601-8.241,5.339c-1.554,0.977-0.945,0.351-1.897-0.809c-1.117-1.359-2.751-2.503-3.94-3.875
			c-5.036-5.805-10.342-12.866-10.371-20.785C106.146,210.392,97.145,210.338,97.166,216.138L97.166,216.138z"/>
	</g>
</g>
<g>
	<g>
		<path fill="#FFFFFF" d="M178.798,95.049c0.175,11.791-1.316,23.497-1.366,35.314c-0.019,4.526-1.355,8.866-1.355,13.411
			c0,6.306-1.629,12.521-2.002,18.827c-0.338,5.732-0.054,11.494-0.412,17.236c-0.35,5.624-1.922,10.992-2.524,16.598
			c-0.584,5.434-3.553,9.816-3.511,15.5c0.043,5.707,0.286,11.412,0.286,17.128c0,5.812,9.002,5.863,9.002,0.064
			c0-5.177,0.095-10.355-0.214-15.525c-0.366-6.126,2.678-11.131,3.439-17.103c0.636-4.99,1.924-9.771,2.386-14.79
			c0.583-6.336,0.416-12.693,0.55-19.045c0.228-10.779,3.07-21.464,3.357-32.237c0.314-11.803,1.542-23.514,1.366-35.314
			C187.714,89.308,178.712,89.249,178.798,95.049L178.798,95.049z"/>
	</g>
</g>
<g>
	<g>
		<path fill="#FFFFFF" d="M203.288,101.172c0,7.937,0,15.873,0,23.81c0,8.455-0.823,16.771-0.386,25.245
			c0.405,7.867,0.965,15.447,1.942,23.254c0.904,7.225-0.603,14.811-0.926,22.012c-0.558,12.448-1.31,24.805-1.31,37.311
			c0,6.237,3.575,8.358,9.373,8.246c3.587-0.07,7.149-0.59,10.742-0.651c1.425-0.024,2.974,0.74,4.287,1.201
			c1.911,0.67,4.138,0.713,6.123,1.36c5.535,1.807,7.87-6.889,2.376-8.682c-5.777-1.886-11.533-3.095-17.611-2.666
			c-2.778,0.196-5.525,0.489-8.314,0.452c2.51,0.033,2.028,3.411,2.028-0.216c0-1.857,0-3.715,0-5.573
			c0-12.209,0.996-24.357,1.956-36.519c0.481-6.095,0.953-12.929-0.069-18.969c-1.25-7.387-1.297-14.762-1.682-22.231
			c-0.406-7.877,0.375-15.645,0.476-23.511c0.102-7.933,0-15.875,0-23.81C212.29,95.425,203.288,95.374,203.288,101.172
			L203.288,101.172z"/>
	</g>
</g>
<g>
	<g>
		<path fill="#FFFFFF" d="M261.111,105.253c-0.012,6.641-0.618,13.409-1.881,19.933c-1.245,6.429-0.835,13.357-0.842,19.874
			c-0.016,13.545-6.004,27.318-2.259,40.539c1.774,6.262,0.22,13.943,0.22,20.388c0,5.892,0.251,11.849-0.103,17.731
			c-0.292,4.838,0.752,9.052,5.882,10.398c6.246,1.641,11.878,5.282,17.942,7.483c5.47,1.986,7.788-6.718,2.376-8.683
			c-5.343-1.94-10.294-4.866-15.646-6.803c-0.739-0.316-1.504-0.543-2.296-0.68c0.229,0.273,0.459,0.546,0.688,0.819
			c-0.021-0.825-0.002-1.648,0.056-2.471c0.128-2.753,0.103-5.504,0.103-8.261c0-5.935-0.113-11.88,0.15-17.81
			c0.261-5.877,0.486-11.82-1.665-17.4c-1.181-3.064,0.154-7.287,0.752-10.346c0.639-3.267,1.1-6.575,1.443-9.886
			c0.641-6.175,1.358-12.068,1.361-18.3c0.005-12.267,2.698-24.219,2.721-36.462C270.124,99.506,261.122,99.456,261.111,105.253
			L261.111,105.253z"/>
	</g>
</g>
<g>
	<g>
		<path fill="#FFFFFF" d="M303.967,232.324c2.678-8.929,1.699-18.597,2.532-27.771c0.46-5.055,1.697-9.727,1.709-14.881
			c0.013-5.577,0.508-11.323,0.932-16.886c0.347-4.54,1.131-9.083,1.72-13.596c0.626-4.804,2.519-9.162,2.366-14.076
			c-0.143-4.595,0.737-8.726,1.105-13.265c0.447-5.509-1.112-11.157,0.52-16.531c1.691-5.57-7-7.916-8.682-2.376
			c-1.42,4.676-1.038,9.331-0.753,14.142c0.272,4.587-1.599,9.032-1.447,13.544c0.172,5.145-0.219,9.199-1.474,14.218
			c-1.163,4.654-1.32,9.674-1.977,14.434c-1.377,9.974,0.175,20.721-2.281,30.481c-2.474,9.832-0.021,20.412-2.952,30.188
			C293.613,235.524,302.304,237.871,303.967,232.324L303.967,232.324z"/>
	</g>
</g>
<g>
	<g>
		<path fill="#FFFFFF" d="M352.426,221.645c0-2.268,0-4.535,0-6.803c0-2.364,1.74-4.966,2.222-7.294
			c0.498-2.414,1.104-4.806,1.7-7.197c0.409-1.641,1.508-3.565,1.521-5.237c0.033-4.432,1.397-8.892,2.562-13.13
			c0.535-1.946,0.154-4.313,1.097-6.176c1.358-2.684,1.896-5.718,2.809-8.588c3.229-10.153,5.076-20.484,7.659-30.814
			c1.434-5.733,3.391-11.163,5.092-16.836c1.618-5.398,2.63-11.752,5.352-16.669c-2.893-0.015-3.662,0.784-2.307,2.395
			c0.721,1.406,1.325,2.885,2.008,4.311c1.135,2.369,2.64,4.356,3.566,6.898c1.96,5.376,2.391,11.09,3.196,16.732
			c1.607,11.259,4.034,22.752,7.167,33.714c1.607,5.626,2.798,11.345,4.439,16.96c1.766,6.038,1.873,11.84,2.574,18.022
			c0.66,5.825,2.126,11.396,2.332,17.267c0.196,5.573,0.32,11.871,2.11,17.183c1.845,5.472,10.549,3.176,8.693-2.329
			c-1.843-5.468-1.809-12.439-1.884-18.191c-0.09-6.945-2.588-13.709-2.725-20.749c-0.125-6.434-2.178-12.425-3.834-18.574
			c-1.787-6.634-3.599-13.345-5.163-20.038c-2.952-12.626-4.972-25.267-6.803-38.095c-0.775-5.434-4.367-10.143-6.652-14.915
			c-1.994-4.162-4.563-10.223-10.339-8.675c-4.814,1.29-6.249,7.966-7.343,12.002c-1.758,6.487-3.68,13.02-6.068,19.303
			c-2.082,5.477-3.303,11.797-4.428,17.566c-1.216,6.233-2.975,12.104-4.47,18.233c-1.22,5-2.864,10.14-4.561,14.966
			c-0.679,1.931-1.014,4.605-1.445,6.643c-0.542,2.56-0.917,5.151-1.393,7.728c-0.845,4.579-2.115,9.208-3.146,13.914
			c-0.619,2.827-2.065,5.419-2.395,8.311c-0.303,2.673-0.146,5.409-0.146,8.098C343.424,227.392,352.426,227.443,352.426,221.645
			L352.426,221.645z"/>
	</g>
</g>
<g>
	<g>
		<path fill="#FFFFFF" d="M355.376,184.617c3.854,0,7.709,0,11.564,0c4.341,0,8.587-1.216,12.926-1.361
			c7.62-0.254,15.555,0.792,23.129,1.361c5.803,0.436,5.813-8.57,0.064-9.002c-7.189-0.541-14.403-0.875-21.632-1.323
			c-4.348-0.27-8.595,0.834-12.891,1.265c-4.288,0.429-8.788,0.059-13.097,0.059C349.629,175.615,349.577,184.617,355.376,184.617
			L355.376,184.617z"/>
	</g>
</g>
<g>
	<g>
		<path fill="#FFFFFF" d="M440.182,233.889c0.069-5.001,0.555-9.976,0-14.966c-0.582-5.239-1.81-10.309-2.041-15.646
			c-0.47-10.839,0-21.801,0-32.653c0-4.854,1.527-9.836,2.969-14.431c1.487-4.736,2.296-9.705,3.325-14.547
			c0.934-4.388,1.228-9.141,1.793-13.607c0.645-5.085,1.915-10.187,3.044-15.216c1.222-5.442,0.76-11.428,3.231-16.512
			c0.938-1.932,1.617-3.723,2.105-5.797c1.012-1.927-0.255-2.502-3.799-1.726c0.346,0.882,0.267,1.545,0.717,2.449
			c4.664,9.361,9.3,18.074,11.438,28.41c2.05,9.915,2.713,19.98,4.874,29.887c1.282,5.875,0.757,12.105,0.757,18.085
			c0,4.26,0.339,8.271,0.68,12.464c0.467,5.748,9.472,5.844,9.002,0.064c-0.834-10.263,0.24-20.918-1.389-31.129
			c-0.968-6.07-2.467-11.875-2.769-18.052c-0.267-5.458-1.97-11.497-3.143-16.844c-2.247-10.244-8.252-19.448-11.817-28.54
			c-1.484-3.788-5.573-5.879-9.33-3.678c-3.686,2.161-4.18,7.969-5.865,11.436c-2.782,5.725-2.406,12.79-3.781,18.919
			c-1.157,5.155-2.71,10.427-2.957,15.713c-0.13,2.77-1.28,5.291-1.29,8.093c-0.011,3.116-0.949,5.872-1.592,8.879
			c-1.203,5.626-2.719,11.132-4.019,16.745c-2.651,11.45-1.187,24.213-1.187,35.878c0,6.016,0.274,12.068,1.117,18.029
			c0.397,2.813,1.178,5.315,1.226,8.198c0.056,3.34-0.256,6.688-0.302,10.028C431.099,239.64,440.102,239.683,440.182,233.889
			L440.182,233.889z"/>
	</g>
</g>
<g>
	<g>
		<path fill="#FFFFFF" d="M478.797,162.256c0.607-3.416,3.318-6.664,4.582-9.942c1.857-4.82,3.458-9.889,5.083-14.803
			c3.101-9.378,11.104-18.666,11.654-28.725c0.257-4.706,2.489-8.871,4.19-13.196c0.558-1.417,1.093-2.837,1.658-4.251
			c0.279-0.677,0.61-1.327,0.991-1.952c-1.269,0.055-2.537,0.109-3.806,0.164c0.452,0.663,0.868,1.348,1.249,2.055
			c2.43,4.244,4.78,8.14,6.44,12.805c1.742,4.892,2.942,9.801,3.748,14.921c1.455,9.252,1.47,18.844,3.82,27.936
			c1.208,4.67,0.561,9.937,1.157,14.75c0.606,4.894,0.984,9.804,1.794,14.672c1.676,10.078,1.651,20.149,2.766,30.257
			c0.573,5.199,1.594,10.308,2.088,15.543c0.396,4.204,0.59,8.483,0.885,12.698c0.403,5.761,9.407,5.851,9.002,0.064
			c-0.338-4.832-0.6-9.679-1.056-14.505c-0.536-5.68-1.785-11.297-2.219-16.952c-0.424-5.531-0.601-11.096-0.983-16.641
			c-0.389-5.626-1.704-11.083-2.365-16.669c-0.66-5.571-1.442-11.248-1.54-16.866c-0.086-4.965-1.74-9.439-2.041-14.286
			c-0.711-11.469-1.915-22.885-5.268-33.914c-1.662-5.469-3.773-10.645-6.683-15.559c-1.744-2.947-3.655-7.143-7.07-8.412
			c-8.222-3.058-10.877,11.734-13.188,16.487c-2.23,4.59-1.87,9.372-3.622,14.094c-2.199,5.928-5.335,11.466-7.985,17.194
			c-2.403,5.193-4.03,10.792-5.983,16.172c-0.916,2.524-1.415,4.972-2.817,7.302c-1.305,2.168-2.719,4.675-3.164,7.184
			C469.105,165.557,477.781,167.966,478.797,162.256L478.797,162.256z"/>
	</g>
</g>
<g>
	<g>
		<path fill="#FFFFFF" d="M411.732,369.427c-0.05-2.596,1.331-5.454,1.89-7.995c0.748-3.397,1.523-6.788,2.24-10.192
			c1.518-7.202,2.757-14.782,3.304-22.123c0.437-5.854,0.263-11.89-2.289-17.247c-2.586-5.43-9.341-7.861-14.618-4.901
			c-5.538,3.106-10.877,7.718-15.729,11.813c-5.791,4.887-11.257,10.375-16.327,15.996c-2.173,2.408-4.441,4.7-6.685,7.039
			c-0.349,0.363-1.487,1.785-1.767,1.725c-1.421-0.309-3.015-1.564-4.259-2.291c-6.106-3.565-13.398-5.342-20.3-6.472
			c-5.938-0.972-11.602-2.273-17.684-2.538c-2.056-0.09-3.981-0.08-5.916,0.654c-3.243,1.229-6.977,0.706-10.411,0.706
			c-2.867,0-5.597,1.41-8.429,1.296c-2.655-0.106-5.705-0.707-8.167,0.685c-1.945,1.099-4.157,1.263-6.069,2.316
			c-2.801,1.544-5.744,2.965-8.594,4.436c-0.577,0.208-1.154,0.417-1.73,0.625c0.641,1.053,0.645,1.036,0.011-0.052
			c-0.781-1.37-1.723-2.646-2.626-3.937c-1.828-2.608-4.023-4.403-6.572-6.266c-6.081-4.444-12.125-8.721-18.869-12.104
			c-5.459-2.738-10.011-6.578-16.447-6.765c-5.731-0.166-9.184,3.357-11.063,8.623c-1.298,3.64-1.01,7.458-1.01,11.264
			c0,4.259,1.379,7.02,2.625,10.955c2.958,9.345,2.137,19.233,2.137,28.852c0,4.013,0.306,7.883,0.63,11.874
			c0.333,4.108,1.296,8.239,1.406,12.335c0.115,4.307,1.647,8.175,2.046,12.441c0.44,4.708,0.858,9.573,2.195,14.122
			c1.635,5.56,10.332,3.243,8.693-2.33c-1.726-5.87-0.724-12.673-2.721-18.367c-1.032-2.941-1.114-5.483-1.353-8.555
			c-0.251-3.228-1.165-6.328-1.264-9.582c-0.183-5.962-0.696-11.828-0.602-17.824c0.111-7.105,0.294-14.241-1.542-21.182
			c-0.726-2.742-1.463-5.241-2.444-7.891c-0.969-2.621-0.803-5.131-0.803-7.908c0-3.187,0.354-5.312,2.117-7.997
			c-0.23,0.351,1.899,0.278,2.599,0.464c2.244,0.595,4.025,1.611,5.997,2.777c6.052,3.582,12.046,6.696,17.755,10.847
			c2.938,2.137,6.487,3.856,8.727,6.773c1.674,2.18,2.777,5.056,4.874,6.871c4.27,3.695,10.322,0.592,14.436-1.727
			c4.599-2.593,10.283-5.205,15.566-4.772c2.953,0.242,5.527-1.116,8.43-1.296c3.154-0.195,6.327,0.163,9.481-0.117
			c2.202-0.194,3.89-1.243,6.122-1.243c3.291,0,6.546,0.604,9.833,0.757c3.028,0.142,6.132,1.471,9.157,1.908
			c3.55,0.513,6.924,1.756,10.287,2.958c5.262,1.879,11.384,7.718,17.271,5.076c4.883-2.191,8.949-8.192,12.458-12.082
			c5.19-5.754,10.98-11.586,17.119-16.324c2.193-1.693,4.551-3.167,6.697-4.927c2.318-1.899,5.222-5.754,7.569-2.183
			c2.848,4.332,1.124,13.74,0.342,18.43c-1.082,6.483-2,12.951-3.447,19.37c-1.077,4.776-3.37,10.241-3.277,15.137
			C402.841,375.166,411.843,375.228,411.732,369.427L411.732,369.427z"/>
	</g>
</g>
<g>
	<g>
		<path fill="#FFFFFF" d="M272.57,398.907c-3.27,0.382-5.772,1.466-8.522,3.276c-3.337,2.197-6.966,2.396-10.285,4.379
			c-8.234,4.92-17.025,8.919-25.34,13.661c-6.502,3.71-14.818,7.367-18.107,14.71c-2.886,6.444,1.176,12.609,5.643,17.062
			c2.121,2.114,4.59,3.891,6.977,5.688c3.127,2.354,5.659,5.288,9.385,6.784c8.476,3.402,17.709,2.626,26.666,2.626
			c4.501,0,8.777-0.062,13.181-1.087c4.597-1.069,8.952-3.297,13.661-3.899c4.411-0.564,8.847-0.23,13.263-0.563
			c3.667-0.275,7.107-1.241,10.831-1.254c5.811-0.021,5.863-9.022,0.064-9.002c-5.862,0.021-11.518,1.308-17.386,1.396
			c-7.522,0.113-14.017,2.011-21.141,4.183c-7.293,2.224-15.574,1.232-23.121,1.221c-3.638-0.005-7.154-0.188-10.666-1.197
			c-3.783-1.088-6.271-4.046-9.316-6.316c-3.374-2.517-9.7-6.442-10.035-11.125c-0.124-1.731,4.905-6.058,6.156-6.989
			c3.356-2.5,8.072-4.522,11.905-6.176c7.073-3.052,13.559-7.652,20.408-11.171c2.401-1.234,4.821-1.695,7.389-2.597
			c2.876-1.009,5.274-4.251,8.327-4.607C278.202,407.244,278.317,398.236,272.57,398.907L272.57,398.907z"/>
	</g>
</g>
<g>
	<g>
		<path fill="#FFFFFF" d="M253.691,375.753c-1.118,1.205-2.056,2.813-1.918,4.525c0.175,2.164,1.189,3.621,2.884,4.889
			c2.078,1.553,5.935,2.339,8.175,0.876c1.905-1.243,3.682-3.554,4.012-5.852c0.286-1.991,0.057-3.955-1.444-5.461
			c-0.348-0.35-0.768-0.616-1.163-0.912c-0.052-0.028-0.104-0.058-0.156-0.086c-1.301-0.531-1.417-0.588-0.35-0.173
			c-0.9-0.534-1.862-0.711-2.889-0.776c-3.227-0.208-5.497,2.631-6.498,5.326c-0.471,1.269-0.401,2.693-0.141,3.992
			c0.198,0.988,0.802,1.879,1.455,2.618c-1.235-1.398-0.093-0.064,0.336,0.397c0.332,0.357,0.766,0.623,1.173,0.892
			c1.273,0.843,3.141,0.957,4.569,0.519c1.694-0.521,2.831-1.575,3.837-2.978c2.069-2.883,0.53-6.938-2.354-8.529
			c-2.146-1.184-4.903-0.507-6.147,1.647c-1.208,2.093-0.5,4.963,1.647,6.147c0.411,0.24,0.284,0.127-0.381-0.341
			c0.32,0.331,0.191,0.161-0.387-0.51c-0.313-0.529-0.465-1.102-0.458-1.717c0.061,0.685,0.27-1.219,0.058-0.557
			c0.374-0.806,0.45-1.02,0.229-0.642c0.557-0.684,0.687-0.864,0.389-0.543c-0.329,0.297-0.148,0.158,0.544-0.416
			c-0.594,0.411,1.227-0.421,0.547-0.212c0.953-0.08,1.205-0.115,0.755-0.105c0.589,0.001,1.14,0.148,1.651,0.441
			c0.485,0.278,0.867,0.66,1.144,1.146c-0.239-0.308-0.478-0.614-0.716-0.921c0.423,0.417,0.706,0.914,0.849,1.491
			c-0.119-0.438-0.101-0.204,0.054,0.698c-0.041-0.348,0.104-1.082-0.119,0.422c0.023-0.128,0.052-0.254,0.088-0.378
			c0.201-0.77-0.501,1.046-0.151,0.327c0.469-0.962-0.595,0.635-0.147,0.124c0.326-0.316,0.154-0.196-0.514,0.359
			c0.597-0.453-1.207,0.389-0.505,0.184c-0.566,0.156-1.131,0.156-1.696-0.001c-0.769-0.369-0.954-0.44-0.554-0.212
			c1.305,0.536,1.417,0.589,0.336,0.158c-1.302-0.721-1.574-1.707-1.728-2.989c0.075,0.629,0.316-1.275,0.034-0.255
			c-0.146,0.422-0.073,0.259,0.221-0.489c-0.086,0.195-0.196,0.38-0.305,0.563c-0.586,0.993,0.688-0.736-0.063,0.077
			c-0.737,0.799,0.948-0.543,0.115-0.083c0.771-0.206,1.541-0.413,2.311-0.619c-0.132,0-0.265-0.006-0.397-0.016
			c-0.829-0.049,1.149,0.2,0.306,0.036c-0.438-0.085-1.801-0.697-0.396-0.045c-0.185-0.086-0.356-0.195-0.526-0.307
			c0.208,0.153,0.415,0.308,0.622,0.462c-0.315-0.326-0.187-0.151,0.388,0.526c0.499,0.736,0.5,1.706,0.327,2.535
			c-0.099,0.237-0.197,0.475-0.296,0.713c-0.504,0.604-0.591,0.725-0.261,0.359c1.665-1.795,1.753-4.6-0.034-6.364
			C258.354,374.038,255.361,373.953,253.691,375.753L253.691,375.753z"/>
	</g>
</g>
<g>
	<g>
		<path fill="#FFFFFF" d="M349.172,387.964c-1.944-1.763-4.506-2.19-7.014-1.579c-1.164,0.284-2.25,0.911-3.105,1.74
			c-1.238,1.199-1.954,3.401-1.29,5.059c0.622,1.551,1.522,2.682,3.013,3.502c1.408,0.776,2.803,0.883,4.356,0.614
			c2.214-0.384,3.995-2.749,4.326-4.868c0.301-1.925,0.275-4.18-0.972-5.813c-0.76-0.996-0.858-1.127-1.875-1.858
			c-0.637-0.46-1.81-0.917-2.613-0.818c-1.718,0.21-3.066,0.738-4.221,2.069c-0.619,0.715-1.264,1.554-1.637,2.442
			c-0.468,1.113-0.62,1.445-0.717,2.678c-0.113,1.437,0.777,2.688,1.667,3.697c1.667,1.894,4.533,2.195,6.884,2.196
			c2.451,0.002,4.517-2.006,4.533-4.469c0.017-2.44-2.017-4.532-4.469-4.533c-0.254,0-0.507-0.002-0.761-0.007
			c-0.384-0.009-1.664-0.18-0.076,0.055c-0.445-0.065-1.479-0.54-0.085,0.098c-0.39-0.224-0.242-0.094,0.44,0.389
			c-0.6-0.465,0.634,1.006,0.249,0.328c0.206,0.771,0.413,1.54,0.619,2.311c-0.182,0.982-0.214,1.258-0.095,0.828
			c-0.375,1.292-0.398,0.895-0.188,0.486c0.143-0.277,0.32-0.536,0.501-0.789c-0.517,0.657-0.633,0.819-0.349,0.484
			c0.25-0.288,0.823-0.698-0.456,0.286c1.284-0.988-5.187-0.825-3.818-0.003c-0.919-0.553-0.583-0.377-1.227-1.22
			c0.047,0.064,0.089,0.132,0.127,0.202c0.33,0.563-0.484-1.282-0.271-0.652c0.042,0.124,0.068,0.254,0.094,0.382
			c-0.309-1.509-0.119-1.092-0.096-0.662c0.024,0.433-0.161,1.363,0.106-0.352c-0.02,0.128-0.054,0.253-0.089,0.378
			c-0.171,0.619,0.538-1.172,0.263-0.607c-0.035,0.067-0.074,0.134-0.117,0.197c0.593-0.937,0.36-0.576,1.249-1.248
			c-0.372,0.227-0.092,0.117,0.842-0.328c-0.563,0.219,1.399-0.088,0.774-0.104c0.953,0.175,1.218,0.203,0.796,0.084
			c1.226,0.365,0.934,0.428,0.526,0.17c-0.048-0.034-0.096-0.068-0.144-0.103c0.512,0.292,0.909,0.696,1.194,1.214
			c0.816,1.054,0.474,2.829-0.025,3.868c-0.631,0.747-0.794,0.97-0.491,0.669c-0.926,0.896-0.92,0.661-0.49,0.439
			c-1.297,0.671-0.993,0.389-0.556,0.262c0.358-0.104,1.079-0.151-0.563,0.041c0.44-0.052,1.459,0.127-0.178-0.127
			c0.358,0.056,0.988,0.354-0.471-0.261c0.384,0.161,0.64,0.605-0.435-0.369c1.813,1.645,4.584,1.769,6.364-0.034
			C350.872,392.642,350.991,389.612,349.172,387.964L349.172,387.964z"/>
	</g>
</g>
<g>
	<g>
		<path fill="#FFFFFF" d="M233.962,423.374c2.433,3.408,1.914,7.146,0.701,10.949c-0.49,1.536-1.038,3.132-1.8,4.552
			c-1.13,2.105-4.245,2.518-6.142,3.509c-0.628,0.33-1.258,0.657-1.889,0.982c-2.009,0.521-1.631,0.973,1.132,1.356
			c-0.314-1.182-0.03-2.742,0.033-3.954c0.18-3.481,0.923-5.708,4.847-6.483c-1.835-1.845-3.67-3.689-5.506-5.535
			c-0.436,3.115-2.566,5.774-2.987,9.008c-0.625,4.793,4.464,6.323,8.107,5.702c4.663-0.796,8.549-4.502,8.814-9.368
			c0.234-4.286-1.859-9.301-6.84-9.334c-8.315-0.055-12.38,16.93-2.874,16.749c4.827-0.092,8.901-3.813,10.81-8.021
			c1.837-4.052,1.917-9.443-3.379-10.608c-5.659-1.245-8.046,7.435-2.376,8.682c-3.429-0.754-1.387-3.84-2.709-1.148
			c-0.475,0.796-1.118,1.428-1.93,1.895c2.014,3.495,3.022,4.378,3.025,2.648c0.116-0.641,0.377-1.18,0.803-1.663
			c-2.709-1.756-3.871-1.801-3.485-0.134c0.056,0.438-0.083,0.816-0.416,1.139c-0.236,0.047-0.472,0.094-0.708,0.141
			c-2.395,0.403-1.676,1.532,2.158,3.387c-0.024-0.449,0.667-1.669,0.853-2.083c0.66-1.466,1.59-3.005,1.815-4.612
			c0.481-3.439-1.89-6.25-5.506-5.535c-6.582,1.301-11.197,6.591-11.492,13.14c-0.237,5.269-0.305,15.654,7.85,14.054
			c6.28-1.233,14.29-5.399,16.801-11.539c2.924-7.15,4.909-15.624,0.051-22.429C238.385,414.139,230.583,418.641,233.962,423.374
			L233.962,423.374z"/>
	</g>
</g>
<g>
	<g>
		<path fill="#FFFFFF" d="M307.879,458.249c4.218-0.183,8.687-0.448,12.781-1.516c-2.615,0.682-3.099,10.692-3.443,13.31
			c-0.637,4.842-0.583,9.171-2.26,13.865c-1.721,4.815-5.174,9.273-9.324,12.217c-1.569,1.113-3.023,2.357-4.549,3.526
			c-1.855,1.422-4.656,1.248-6.864,1.293c-4.708,0.096-8.739-2.285-9.853-6.864c-2.307-9.489-1.983-20.263,0.675-29.619
			c1.59-5.598-7.099-7.952-8.683-2.377c-1.819,6.404-2.11,11.903-2.248,18.528c-0.148,7.106,0.195,14.129,3.33,20.642
			c2.483,5.16,9.934,8.714,15.472,8.696c3.211-0.01,6.364-0.185,9.479-1.011c3.064-0.813,5.311-3.252,7.797-5.051
			c5.512-3.986,9.609-8.948,12.439-15.149c3.139-6.875,2.74-13.636,3.935-20.877c0.879-5.327,5.37-15.131-0.705-19.018
			c-2.406-1.538-4.824-1.391-7.528-0.805c-3.381,0.732-6.919,1.057-10.387,1.207C302.156,449.498,302.081,458.5,307.879,458.249
			L307.879,458.249z"/>
	</g>
</g>
<g>
	<g>
		<path fill="#FFFFFF" d="M404.932,370.927c-1.029,4.996,0.031,7.126,2.56,11.57c2.835,4.983,2.425,12.045,4.248,17.493
			c1.625,4.857,2.089,10.135,4.23,14.802c2.509,5.466,3.86,10.365,4.778,16.286c0.795,5.131,1.946,10.743,3.573,15.661
			c1.834,5.539,2.945,11.285,5.034,16.751c1.888,4.937,4.986,9.365,7.305,14.104c2.25,4.601,3.017,10.418,6.146,14.487
			c3.484,4.532,11.301,0.044,7.764-4.557c-2.403-3.126-3.536-8.11-4.978-11.812c-1.915-4.919-4.853-9.365-7.268-14.039
			c-2.546-4.927-2.895-10.682-4.771-15.833c-1.809-4.964-2.796-10.522-3.898-15.709c-1.067-5.022-1.262-9.759-3.517-14.516
			c-2.321-4.898-3.226-9.495-4.356-14.733c-0.531-2.462-1.943-5.036-2.722-7.483c-0.821-2.58-0.812-5.507-1.36-8.163
			c-0.525-2.539-1.435-4.922-2.445-7.296c-1.074-2.521-2.156-2.136-1.642-4.637C414.78,367.636,406.103,365.241,404.932,370.927
			L404.932,370.927z"/>
	</g>
</g>
<g>
	<g>
		<path fill="#FFFFFF" d="M240.146,463.24c0.028,10.989,0.472,21.971,0.639,32.959c0.156,10.253-0.589,20.646,0.876,30.823
			c0.826,5.736,9.51,3.341,8.693-2.33c-1.338-9.296-0.459-19.056-0.567-28.429c-0.126-10.988-0.611-21.969-0.639-32.959
			C249.133,457.494,240.131,457.441,240.146,463.24L240.146,463.24z"/>
	</g>
</g>
<g>
	<g>
		<path fill="#FFFFFF" d="M182.093,379.859c-5.422-0.271-10.473-2.708-15.918-2.727c-5.182-0.017-9.089-2.842-14.014-3.396
			c-5.296-0.596-10.634-0.715-15.851-1.881c-2.283-0.511-4.534-2.023-6.803-2.721c-2.219-0.683-5.138,0.414-7.102-0.918
			c-4.812-3.262-9.279,4.555-4.5,7.795c1.927,1.307,3.745,1.66,6.044,1.794c3.01,0.176,4.901,0.533,7.692,1.809
			c4.702,2.148,10.33,2.237,15.409,2.641c5.532,0.438,10.286,3.059,15.793,3.738c3.115,0.384,6.017,0.373,9.099,1.146
			c3.354,0.841,6.623,1.548,10.084,1.721C187.842,389.151,187.866,380.147,182.093,379.859L182.093,379.859z"/>
	</g>
</g>
<g>
	<g>
		<path fill="#FFFFFF" d="M177.062,411.771c-1.936,0.899-5.461,0.061-7.553,0.061c-2.834,0-5.669,0-8.503,0
			c-6.818,0-13.596-0.563-20.408,0c-6.355,0.524-12.683,0.053-19.047,0c-5.872-0.049-11.782,0.681-17.687,0.681
			c-5.812,0-5.863,9.002-0.064,9.002c5.938,0,11.771-0.5,17.687-0.681c7.003-0.214,13.891,0.426,20.902-0.153
			c7.265-0.6,14.672,0.153,21.955,0.153c5.653,0,12.028,1.142,17.277-1.299C186.875,417.092,182.286,409.343,177.062,411.771
			L177.062,411.771z"/>
	</g>
</g>
<g>
	<g>
		<path fill="#FFFFFF" d="M173.93,449.928c-4.724,0.299-8.734,2.571-13.24,3.827c-6.502,1.813-12.986,3.26-19.516,4.898
			c-11.145,2.797-21.229,7.13-31.46,12.302c-5.178,2.618-0.605,10.374,4.558,7.764c9.506-4.807,18.891-8.725,29.231-11.372
			c5.395-1.381,10.812-2.059,16.14-3.835c2.554-0.852,5.139-1.563,7.735-2.287c2.291-0.639,4.085-2.143,6.488-2.295
			C179.634,458.564,179.72,449.562,173.93,449.928L173.93,449.928z"/>
	</g>
</g>
<g>
	<g>
		<path fill="#FFFFFF" d="M170.259,482.52c-3.544,2.549-6.464,5.904-10.194,8.174c-3.844,2.34-8.873,3.071-12.912,5.254
			c-3.98,2.15-7.878,4.586-11.429,7.388c-1.869,1.475-3.481,3.391-5.162,5.071c-1.742,1.741-3.858,2.84-5.442,4.762
			c-3.657,4.437,2.699,10.819,6.399,6.33c2.664-3.231,6.527-5.847,9.524-8.843c3.249-3.248,8.074-5.543,12.09-7.714
			c3.633-1.963,7.787-2.675,11.489-4.484c3.921-1.917,6.699-5.661,10.194-8.174C179.481,486.929,174.98,479.125,170.259,482.52
			L170.259,482.52z"/>
	</g>
</g>
<g>
	<g>
		<path fill="#FFFFFF" d="M474.815,365.793c4.57-2.284,9.114-4.602,13.774-6.693c4.709-2.114,8.488-5.265,12.703-8.155
			c6.718-4.606,15.457-6.009,21.383-11.718c4.18-4.026-2.216-10.359-6.398-6.33c-2.449,2.358-6.373,3.866-9.531,4.94
			c-3.978,1.354-7.928,3.916-11.372,6.278c-3.874,2.656-7.28,5.655-11.757,7.327c-4.588,1.714-8.979,4.397-13.358,6.587
			C465.068,360.623,469.644,368.378,474.815,365.793L474.815,365.793z"/>
	</g>
</g>
<g>
	<g>
		<path fill="#FFFFFF" d="M494.954,397.705c11.593-0.541,22.702-4.646,34.19-5.618c11.418-0.968,23.051-1.413,33.427-6.565
			c5.196-2.58,0.62-10.334-4.557-7.764c-2.927,1.453-5.831,2.91-9.118,3.315c-2.517,0.31-4.961,0.06-7.459,0.591
			c-4.851,1.031-10.178,1.42-15.126,1.597c-5.201,0.186-9.969,1.805-14.983,3.011c-2.569,0.619-5.504,0.888-8.146,1.071
			c-2.763,0.192-5.362,1.229-8.163,1.36C489.234,388.974,489.157,397.976,494.954,397.705L494.954,397.705z"/>
	</g>
</g>
<g>
	<g>
		<path fill="#FFFFFF" d="M517.403,428.317c11.316,0.005,21.883,1.177,32.857,3.922c5.793,1.449,11.841,1.543,17.687,2.721
			c5.191,1.046,10.508,0.264,15.646,1.36c5.664,1.209,8.054-7.47,2.377-8.682c-4.771-1.019-9.502-0.41-14.283-1.074
			c-6.283-0.872-12.864-1.622-19.05-3.007c-11.835-2.65-22.992-4.237-35.17-4.242C511.656,419.313,511.605,428.315,517.403,428.317
			L517.403,428.317z"/>
	</g>
</g>
<g>
	<g>
		<path fill="#FFFFFF" d="M516.991,460.349c2.103,2.214,4.629,3.253,7.531,4.052c4.625,1.274,8.936,3.115,13.112,5.49
			c7.243,4.118,15.826,5.039,23.129,8.844c5.136,2.675,9.657-5.108,4.5-7.795c-6.269-3.265-13.318-4.687-19.766-7.542
			c-3.761-1.666-7.424-3.551-11.228-5.121c-3.103-1.281-8.641-1.896-10.949-4.326C519.324,449.741,512.993,456.14,516.991,460.349
			L516.991,460.349z"/>
	</g>
</g>
<g>
	<g>
		<path fill="#FFFFFF" d="M497.264,498.444c2.152,2.6,5.147,3.924,7.357,6.487c2.952,3.423,7.299,5.777,11.284,7.74
			c4.01,1.975,7.976,4.089,11.747,6.489c1.881,1.197,3.66,2.531,5.561,3.705c2.416,1.493,4.813,2.1,6.908,4.149
			c4.143,4.056,10.488-2.329,6.33-6.398c-3.093-3.028-6.652-4.256-10.27-6.491c-3.928-2.427-7.603-5.016-11.734-7.132
			c-3.697-1.893-7.53-3.652-10.885-6.123c-1.863-1.371-2.925-3.163-4.526-4.744c-1.669-1.648-3.903-2.223-5.442-4.081
			C499.896,487.58,493.589,494.009,497.264,498.444L497.264,498.444z"/>
	</g>
</g>
</svg>
